<svg width="420" height="80" viewBox="0 0 420 80" fill="none" xmlns="http://www.w3.org/2000/svg">
<title>StockSpectra Logo</title>
<desc>StockSpectra wordmark with balanced dual-curve split-S icon representing stock comparison</desc>
<!-- 
CSS hint:
.logo #icon { fill: var(--accent); }
.logo:hover #icon { fill: #18E0C2; }
-->
<g id="wordmark">
<path d="M18.4 51.2C16.8 50.6 15.5 49.7 14.5 48.5C13.5 47.3 13 45.8 13 44C13 41.9 13.6 40.1 14.8 38.6C16 37.1 17.7 35.9 19.9 35.1C22.1 34.3 24.6 33.9 27.4 33.9C30.2 33.9 32.7 34.3 34.9 35.1C37.1 35.9 38.8 37.1 40 38.6L36.2 42.4C35.4 41.4 34.4 40.6 33.2 40C32 39.4 30.7 39.1 29.3 39.1C27.5 39.1 26 39.5 24.8 40.3C23.6 41.1 23 42.2 23 43.6C23 44.6 23.3 45.4 23.9 46C24.5 46.6 25.3 47.1 26.3 47.4C27.3 47.7 28.6 47.9 30.2 47.9H34V53.1H30.2C27.4 53.1 25 52.8 23 52.2L18.4 51.2Z" fill="#E6EDF3"/>
<path d="M50 34.5V39.7H45.8V58H52.2V34.5H50ZM45.8 28V34.5H52.2V28H45.8Z" fill="#E6EDF3"/>
<path d="M71.6 58.6C68.8 58.6 66.3 58 64.1 56.8C61.9 55.6 60.2 53.9 59 51.7C57.8 49.5 57.2 46.9 57.2 43.9C57.2 40.9 57.8 38.3 59 36.1C60.2 33.9 61.9 32.2 64.1 31C66.3 29.8 68.8 29.2 71.6 29.2C74.4 29.2 76.9 29.8 79.1 31C81.3 32.2 83 33.9 84.2 36.1C85.4 38.3 86 40.9 86 43.9C86 46.9 85.4 49.5 84.2 51.7C83 53.9 81.3 55.6 79.1 56.8C76.9 58 74.4 58.6 71.6 58.6ZM71.6 52.4C73.2 52.4 74.6 51.8 75.8 50.6C77 49.4 77.6 47.6 77.6 45.2V42.6C77.6 40.2 77 38.4 75.8 37.2C74.6 36 73.2 35.4 71.6 35.4C70 35.4 68.6 36 67.4 37.2C66.2 38.4 65.6 40.2 65.6 42.6V45.2C65.6 47.6 66.2 49.4 67.4 50.6C68.6 51.8 70 52.4 71.6 52.4Z" fill="#E6EDF3"/>
<path d="M104.8 58.6C101.6 58.6 98.7 57.9 96.1 56.5C93.5 55.1 91.5 53.2 90.1 50.8C88.7 48.4 88 45.6 88 42.4C88 39.2 88.7 36.4 90.1 34C91.5 31.6 93.5 29.7 96.1 28.3C98.7 26.9 101.6 26.2 104.8 26.2C107.6 26.2 110.1 26.8 112.3 28C114.5 29.2 116.2 30.9 117.4 33.1L111.4 36.8C110.8 35.6 109.9 34.7 108.7 34.1C107.5 33.5 106.2 33.2 104.8 33.2C102.8 33.2 101.2 33.9 100 35.3C98.8 36.7 98.2 38.7 98.2 41.3V43.5C98.2 46.1 98.8 48.1 100 49.5C101.2 50.9 102.8 51.6 104.8 51.6C106.2 51.6 107.5 51.3 108.7 50.7C109.9 50.1 110.8 49.2 111.4 48L117.4 51.7C116.2 53.9 114.5 55.6 112.3 56.8C110.1 58 107.6 58.6 104.8 58.6Z" fill="#E6EDF3"/>
<path d="M128 28V58H136.4V48.2L145.6 58H155.2L143.6 45.4L154.8 34.5H145.6L136.4 43.8V28H128Z" fill="#E6EDF3"/>
</g>
<g id="icon">
<path d="M180 38C180 35.5 181 33.5 183 32C185 30.5 187.5 29.5 190.5 29C193.5 28.5 197 28.2 201 28.2C203.5 28.2 206 28.4 208.5 28.8" stroke="#23F39B" stroke-width="3.2" stroke-linecap="round" fill="none"/>
<path d="M194 50C194 52.5 193 54.5 191 56C189 57.5 186.5 58.5 183.5 59C180.5 59.5 177 59.8 173 59.8C170.5 59.8 168 59.6 165.5 59.2" stroke="#23F39B" stroke-width="3.2" stroke-linecap="round" fill="none"/>
<circle cx="187" cy="44" r="2" fill="#23F39B"/>
</g>
<g id="wordmark">
<path d="M224.2 58.6C221.8 58.6 219.6 58.1 217.6 57.1C215.6 56.1 214 54.7 212.8 52.9C211.6 51.1 211 49 211 46.6V34.5H217.4V45.8C217.4 47.6 217.9 49 218.9 50C219.9 51 221.3 51.5 223.1 51.5C224.9 51.5 226.3 51 227.3 50C228.3 49 228.8 47.6 228.8 45.8V34.5H235.2V46.6C235.2 49 234.6 51.1 233.4 52.9C232.2 54.7 230.6 56.1 228.6 57.1C226.6 58.1 224.4 58.6 222 58.6H224.2Z" fill="#E6EDF3"/>
<path d="M254.8 58.6C251.6 58.6 248.7 57.9 246.1 56.5C243.5 55.1 241.5 53.2 240.1 50.8C238.7 48.4 238 45.6 238 42.4C238 39.2 238.7 36.4 240.1 34C241.5 31.6 243.5 29.7 246.1 28.3C248.7 26.9 251.6 26.2 254.8 26.2C257.6 26.2 260.1 26.8 262.3 28C264.5 29.2 266.2 30.9 267.4 33.1L261.4 36.8C260.8 35.6 259.9 34.7 258.7 34.1C257.5 33.5 256.2 33.2 254.8 33.2C252.8 33.2 251.2 33.9 250 35.3C248.8 36.7 248.2 38.7 248.2 41.3V43.5C248.2 46.1 248.8 48.1 250 49.5C251.2 50.9 252.8 51.6 254.8 51.6C256.2 51.6 257.5 51.3 258.7 50.7C259.9 50.1 260.8 49.2 261.4 48L267.4 51.7C266.2 53.9 264.5 55.6 262.3 56.8C260.1 58 257.6 58.6 254.8 58.6Z" fill="#E6EDF3"/>
<path d="M278 34.5V39.7H273.8V58H280.2V34.5H278ZM273.8 28V34.5H280.2V28H273.8Z" fill="#E6EDF3"/>
<path d="M292 34.5V58H298.4V34.5H292ZM292 28V34.5H298.4V28H292Z" fill="#E6EDF3"/>
<path d="M318.4 58.6C316.2 58.6 314.2 58.2 312.4 57.4C310.6 56.6 309.2 55.5 308.2 54.1C307.2 52.7 306.7 51.1 306.7 49.3C306.7 47.1 307.4 45.3 308.8 43.9C310.2 42.5 312.2 41.6 314.8 41.2L320.6 40.4C322.2 40.2 323 39.5 323 38.3C323 37.3 322.6 36.5 321.8 36C321 35.5 319.9 35.2 318.5 35.2C317.1 35.2 315.9 35.5 314.9 36.1C313.9 36.7 313.2 37.5 312.8 38.5L307.4 35.8C308.2 33.8 309.6 32.3 311.6 31.3C313.6 30.3 315.9 29.8 318.5 29.8C321.9 29.8 324.6 30.6 326.6 32.2C328.6 33.8 329.6 36 329.6 38.8V58H323.6V54.8C322.8 55.8 321.7 56.6 320.3 57.2C318.9 57.8 317.3 58.1 315.5 58.1L318.4 58.6ZM319.8 53.4C321.2 53.4 322.4 53 323.4 52.2C324.4 51.4 324.9 50.3 324.9 48.9V45.2H320.2C318.2 45.2 317.2 46 317.2 47.6C317.2 48.4 317.5 49 318.1 49.4C318.7 49.8 319.5 50 320.5 50L319.8 53.4Z" fill="#E6EDF3"/>
</g>
</svg>
