<svg width="420" height="80" viewBox="0 0 420 80" fill="none" xmlns="http://www.w3.org/2000/svg">
<title>StockSpectra Text Logo</title>
<desc>StockSpectra wordmark with standard S letter</desc>
<path d="M18.4 51.2C16.8 50.6 15.5 49.7 14.5 48.5C13.5 47.3 13 45.8 13 44C13 41.9 13.6 40.1 14.8 38.6C16 37.1 17.7 35.9 19.9 35.1C22.1 34.3 24.6 33.9 27.4 33.9C30.2 33.9 32.7 34.3 34.9 35.1C37.1 35.9 38.8 37.1 40 38.6L36.2 42.4C35.4 41.4 34.4 40.6 33.2 40C32 39.4 30.7 39.1 29.3 39.1C27.5 39.1 26 39.5 24.8 40.3C23.6 41.1 23 42.2 23 43.6C23 44.6 23.3 45.4 23.9 46C24.5 46.6 25.3 47.1 26.3 47.4C27.3 47.7 28.6 47.9 30.2 47.9H34V53.1H30.2C27.4 53.1 25 52.8 23 52.2L18.4 51.2Z" fill="#E6EDF3"/>
<path d="M50 34.5V39.7H45.8V58H52.2V34.5H50ZM45.8 28V34.5H52.2V28H45.8Z" fill="#E6EDF3"/>
<path d="M71.6 58.6C68.8 58.6 66.3 58 64.1 56.8C61.9 55.6 60.2 53.9 59 51.7C57.8 49.5 57.2 46.9 57.2 43.9C57.2 40.9 57.8 38.3 59 36.1C60.2 33.9 61.9 32.2 64.1 31C66.3 29.8 68.8 29.2 71.6 29.2C74.4 29.2 76.9 29.8 79.1 31C81.3 32.2 83 33.9 84.2 36.1C85.4 38.3 86 40.9 86 43.9C86 46.9 85.4 49.5 84.2 51.7C83 53.9 81.3 55.6 79.1 56.8C76.9 58 74.4 58.6 71.6 58.6ZM71.6 52.4C73.2 52.4 74.6 51.8 75.8 50.6C77 49.4 77.6 47.6 77.6 45.2V42.6C77.6 40.2 77 38.4 75.8 37.2C74.6 36 73.2 35.4 71.6 35.4C70 35.4 68.6 36 67.4 37.2C66.2 38.4 65.6 40.2 65.6 42.6V45.2C65.6 47.6 66.2 49.4 67.4 50.6C68.6 51.8 70 52.4 71.6 52.4Z" fill="#E6EDF3"/>
<path d="M104.8 58.6C101.6 58.6 98.7 57.9 96.1 56.5C93.5 55.1 91.5 53.2 90.1 50.8C88.7 48.4 88 45.6 88 42.4C88 39.2 88.7 36.4 90.1 34C91.5 31.6 93.5 29.7 96.1 28.3C98.7 26.9 101.6 26.2 104.8 26.2C107.6 26.2 110.1 26.8 112.3 28C114.5 29.2 116.2 30.9 117.4 33.1L111.4 36.8C110.8 35.6 109.9 34.7 108.7 34.1C107.5 33.5 106.2 33.2 104.8 33.2C102.8 33.2 101.2 33.9 100 35.3C98.8 36.7 98.2 38.7 98.2 41.3V43.5C98.2 46.1 98.8 48.1 100 49.5C101.2 50.9 102.8 51.6 104.8 51.6C106.2 51.6 107.5 51.3 108.7 50.7C109.9 50.1 110.8 49.2 111.4 48L117.4 51.7C116.2 53.9 114.5 55.6 112.3 56.8C110.1 58 107.6 58.6 104.8 58.6Z" fill="#E6EDF3"/>
<path d="M128 28V58H136.4V48.2L145.6 58H155.2L143.6 45.4L154.8 34.5H145.6L136.4 43.8V28H128Z" fill="#E6EDF3"/>
<path d="M174.4 51.2C172.8 50.6 171.5 49.7 170.5 48.5C169.5 47.3 169 45.8 169 44C169 41.9 169.6 40.1 170.8 38.6C172 37.1 173.7 35.9 175.9 35.1C178.1 34.3 180.6 33.9 183.4 33.9C186.2 33.9 188.7 34.3 190.9 35.1C193.1 35.9 194.8 37.1 196 38.6L192.2 42.4C191.4 41.4 190.4 40.6 189.2 40C188 39.4 186.7 39.1 185.3 39.1C183.5 39.1 182 39.5 180.8 40.3C179.6 41.1 179 42.2 179 43.6C179 44.6 179.3 45.4 179.9 46C180.5 46.6 181.3 47.1 182.3 47.4C183.3 47.7 184.6 47.9 186.2 47.9H190V53.1H186.2C183.4 53.1 181 52.8 179 52.2L174.4 51.2Z" fill="#E6EDF3"/>
<path d="M212.2 58.6C209.8 58.6 207.6 58.1 205.6 57.1C203.6 56.1 202 54.7 200.8 52.9C199.6 51.1 199 49 199 46.6V34.5H205.4V45.8C205.4 47.6 205.9 49 206.9 50C207.9 51 209.3 51.5 211.1 51.5C212.9 51.5 214.3 51 215.3 50C216.3 49 216.8 47.6 216.8 45.8V34.5H223.2V46.6C223.2 49 222.6 51.1 221.4 52.9C220.2 54.7 218.6 56.1 216.6 57.1C214.6 58.1 212.4 58.6 210 58.6H212.2Z" fill="#E6EDF3"/>
<path d="M250.8 58.6C247.6 58.6 244.7 57.9 242.1 56.5C239.5 55.1 237.5 53.2 236.1 50.8C234.7 48.4 234 45.6 234 42.4C234 39.2 234.7 36.4 236.1 34C237.5 31.6 239.5 29.7 242.1 28.3C244.7 26.9 247.6 26.2 250.8 26.2C254 26.2 256.9 26.9 259.5 28.3C262.1 29.7 264.1 31.6 265.5 34C266.9 36.4 267.6 39.2 267.6 42.4V45H242.4C242.6 46.8 243.3 48.2 244.5 49.2C245.7 50.2 247.2 50.7 249 50.7C250.4 50.7 251.6 50.4 252.6 49.8C253.6 49.2 254.4 48.4 255 47.4L260.6 50.2C259.4 52.4 257.7 54.1 255.5 55.3C253.3 56.5 250.8 57.1 248 57.1L250.8 58.6ZM242.4 40.4H259.2C259 38.8 258.4 37.6 257.4 36.8C256.4 36 255.1 35.6 253.5 35.6C251.9 35.6 250.6 36 249.6 36.8C248.6 37.6 248 38.8 247.8 40.4H242.4Z" fill="#E6EDF3"/>
<path d="M286.8 58.6C283.6 58.6 280.7 57.9 278.1 56.5C275.5 55.1 273.5 53.2 272.1 50.8C270.7 48.4 270 45.6 270 42.4C270 39.2 270.7 36.4 272.1 34C273.5 31.6 275.5 29.7 278.1 28.3C280.7 26.9 283.6 26.2 286.8 26.2C289.6 26.2 292.1 26.8 294.3 28C296.5 29.2 298.2 30.9 299.4 33.1L293.4 36.8C292.8 35.6 291.9 34.7 290.7 34.1C289.5 33.5 288.2 33.2 286.8 33.2C284.8 33.2 283.2 33.9 282 35.3C280.8 36.7 280.2 38.7 280.2 41.3V43.5C280.2 46.1 280.8 48.1 282 49.5C283.2 50.9 284.8 51.6 286.8 51.6C288.2 51.6 289.5 51.3 290.7 50.7C291.9 50.1 292.8 49.2 293.4 48L299.4 51.7C298.2 53.9 296.5 55.6 294.3 56.8C292.1 58 289.6 58.6 286.8 58.6Z" fill="#E6EDF3"/>
<path d="M310 34.5V39.7H305.8V58H312.2V34.5H310ZM305.8 28V34.5H312.2V28H305.8Z" fill="#E6EDF3"/>
<path d="M324 34.5V58H330.4V34.5H324ZM324 28V34.5H330.4V28H324Z" fill="#E6EDF3"/>
<path d="M350.4 58.6C348.2 58.6 346.2 58.2 344.4 57.4C342.6 56.6 341.2 55.5 340.2 54.1C339.2 52.7 338.7 51.1 338.7 49.3C338.7 47.1 339.4 45.3 340.8 43.9C342.2 42.5 344.2 41.6 346.8 41.2L352.6 40.4C354.2 40.2 355 39.5 355 38.3C355 37.3 354.6 36.5 353.8 36C353 35.5 351.9 35.2 350.5 35.2C349.1 35.2 347.9 35.5 346.9 36.1C345.9 36.7 345.2 37.5 344.8 38.5L339.4 35.8C340.2 33.8 341.6 32.3 343.6 31.3C345.6 30.3 347.9 29.8 350.5 29.8C353.9 29.8 356.6 30.6 358.6 32.2C360.6 33.8 361.6 36 361.6 38.8V58H355.6V54.8C354.8 55.8 353.7 56.6 352.3 57.2C350.9 57.8 349.3 58.1 347.5 58.1L350.4 58.6ZM351.8 53.4C353.2 53.4 354.4 53 355.4 52.2C356.4 51.4 356.9 50.3 356.9 48.9V45.2H352.2C350.2 45.2 349.2 46 349.2 47.6C349.2 48.4 349.5 49 350.1 49.4C350.7 49.8 351.5 50 352.5 50L351.8 53.4Z" fill="#E6EDF3"/>
</svg>
